<svg width="40" height="52" viewBox="0 0 40 52" fill="none" xmlns="http://www.w3.org/2000/svg">
<path d="M33.88 43.5224C32.4933 43.5224 31.1867 43.1358 29.96 42.3624C28.7333 41.5891 27.6 40.5758 26.56 39.3224C25.5467 38.0958 24.6267 36.7491 23.8 35.2824C23 33.8158 22.2933 32.3758 21.68 30.9624C21.0933 29.5491 20.6133 28.3091 20.24 27.2424L20.2 27.1224C19.8267 28.3491 19.4533 29.4691 19.08 30.4824C18.7067 31.4691 18.3867 32.2691 18.12 32.8824C17.4533 34.4558 16.5867 35.8958 15.52 37.2024C14.48 38.5091 13.3467 39.5358 12.12 40.2824C10.8933 41.0558 9.66667 41.4424 8.44 41.4424C7.24 41.4424 6.09333 40.9891 5 40.0824C3.93333 39.2024 3.01333 37.7358 2.24 35.6824C2.02667 35.0958 1.88 34.4958 1.8 33.8824C1.69333 33.2691 1.64 32.6424 1.64 32.0024C1.64 30.8558 1.77333 29.7224 2.04 28.6024C2.28 27.4824 2.61333 26.4691 3.04 25.5624C3.33333 24.8691 3.74667 24.1358 4.28 23.3624C4.84 22.5891 5.37333 21.9624 5.88 21.4824C6.01333 21.3491 6.2 21.2024 6.44 21.0424C6.70667 20.8824 6.88 20.8024 6.96 20.8024C6.98667 20.8024 7 20.8158 7 20.8424C7 20.9224 6.77333 21.2024 6.32 21.6824C5.14667 22.8824 4.29333 24.3224 3.76 26.0024C3.22667 27.6824 2.96 29.3758 2.96 31.0824C2.96 33.0024 3.24 34.7224 3.8 36.2424C4.41333 37.9491 5.12 39.1491 5.92 39.8424C6.72 40.5358 7.57333 40.8824 8.48 40.8824C9.33333 40.8824 10.1867 40.6158 11.04 40.0824C11.8933 39.5758 12.6933 38.9091 13.44 38.0824C14.0533 37.4158 14.68 36.4691 15.32 35.2424C15.9867 34.0424 16.6267 32.6691 17.24 31.1224C17.88 29.5758 18.4533 27.9491 18.96 26.2424C19.6 24.1891 20.1067 22.1224 20.48 20.0424C20.88 17.9358 21.08 16.0291 21.08 14.3224C21.08 13.1491 20.9733 12.1091 20.76 11.2024C20.5467 10.2958 20.2133 9.56244 19.76 9.00244C19.4933 8.70911 19.2 8.56244 18.88 8.56244C18.56 8.56244 18.24 8.69577 17.92 8.96244C17.44 9.30911 17 9.85577 16.6 10.6024C16.2267 11.3491 15.8933 12.1891 15.6 13.1224C15.3067 14.0558 15.08 15.0158 14.92 16.0024C14.76 16.9891 14.68 17.9091 14.68 18.7624C14.68 19.3758 14.7333 19.9358 14.84 20.4424C14.9467 20.9491 15.0933 21.3491 15.28 21.6424C15.52 21.9891 15.7733 22.1624 16.04 22.1624C16.1467 22.1624 16.24 22.1491 16.32 22.1224C16.4267 22.0958 16.5067 22.0824 16.56 22.0824C16.6933 22.0824 16.76 22.1224 16.76 22.2024C16.76 22.2824 16.6533 22.3624 16.44 22.4424C16.2533 22.5224 16.0133 22.5624 15.72 22.5624C15.5067 22.5624 15.2933 22.5224 15.08 22.4424C14.4933 22.2024 14.0667 21.7491 13.8 21.0824C13.56 20.3891 13.44 19.5891 13.44 18.6824C13.44 17.6158 13.5867 16.4824 13.88 15.2824C14.2 14.0824 14.6267 12.9491 15.16 11.8824C15.6933 10.8158 16.2933 9.94911 16.96 9.28244C17.6267 8.58911 18.32 8.24244 19.04 8.24244C19.5467 8.24244 20.0533 8.45577 20.56 8.88244C21.2533 9.46911 21.7467 10.2958 22.04 11.3624C22.3333 12.4024 22.48 13.5758 22.48 14.8824C22.48 16.4291 22.3067 18.1091 21.96 19.9224C21.64 21.7091 21.2533 23.4291 20.8 25.0824C21.8667 23.1358 23.1467 21.3758 24.64 19.8024C26.16 18.2024 27.8267 16.9358 29.64 16.0024C31.48 15.0424 33.4 14.5624 35.4 14.5624C35.9333 14.5624 36.48 14.6024 37.04 14.6824C37.6267 14.7624 38.2 14.8958 38.76 15.0824C39.0267 15.1624 39.16 15.3624 39.16 15.6824C39.16 15.9224 39.08 16.1358 38.92 16.3224C38.7867 16.5091 38.6 16.5624 38.36 16.4824C37.4533 16.2158 36.5067 16.0824 35.52 16.0824C34.0533 16.0824 32.6 16.3758 31.16 16.9624C29.72 17.5224 28.3467 18.2958 27.04 19.2824C25.7333 20.2424 24.5333 21.3491 23.44 22.6024C22.3733 23.8291 21.48 25.1224 20.76 26.4824L20.72 26.6024L20.88 26.9624C21.2267 27.7358 21.7067 28.6291 22.32 29.6424C22.9333 30.6291 23.6267 31.6691 24.4 32.7624C25.2 33.8558 26.0133 34.9091 26.84 35.9224C27.6667 36.9624 28.48 37.8958 29.28 38.7224C30.08 39.5491 30.8 40.1891 31.44 40.6424C31.92 40.9891 32.48 41.3358 33.12 41.6824C33.7867 42.0558 34.44 42.2424 35.08 42.2424C35.96 42.2424 36.5467 41.8824 36.84 41.1624C37.16 40.4424 37.32 39.7091 37.32 38.9624C37.32 38.1091 37.1867 37.2691 36.92 36.4424C36.6533 35.6158 36.28 34.8558 35.8 34.1624C35.72 34.0291 35.68 33.9491 35.68 33.9224C35.68 33.8424 35.72 33.8024 35.8 33.8024C35.9333 33.8024 36.0933 33.8958 36.28 34.0824C36.8133 34.7224 37.24 35.4691 37.56 36.3224C37.88 37.1758 38.04 38.0291 38.04 38.8824C38.04 40.1891 37.6667 41.2824 36.92 42.1624C36.1733 43.0691 35.16 43.5224 33.88 43.5224Z" fill="white"/>
<path d="M15.68 43.92C16.9867 43.92 18.24 43.3467 19.44 42.2C20.6133 41.0533 21.5733 39.3867 22.32 37.2C23.0667 35.04 23.44 32.4267 23.44 29.36C23.44 28.9867 23.44 28.6 23.44 28.2C23.4133 27.8 23.3867 27.3867 23.36 26.96C23.6267 26.9867 23.8933 27 24.16 27C24.4 27 24.6267 27 24.84 27C26.3867 27 27.52 26.8 28.24 26.4C28.9333 26 29.28 25.48 29.28 24.84C29.28 24.2 28.9733 23.4933 28.36 22.72C27.72 21.9467 26.84 21.16 25.72 20.36C24.6 19.56 23.3067 18.84 21.84 18.2C21.2267 15.9867 20.4267 13.6533 19.44 11.2C18.4533 8.74667 17.2267 6.18666 15.76 3.52C15.5733 3.17333 15.2933 3 14.92 3C14.68 3 14.4667 3.08 14.28 3.24C14.0933 3.4 14 3.61333 14 3.88C14 4.01333 14.04 4.18666 14.12 4.4C14.3333 4.82667 14.5467 5.26667 14.76 5.72C14.9733 6.14667 15.1867 6.57333 15.4 7C15 6.92 14.6933 6.88 14.48 6.88C14.2667 6.88 14.0133 6.86667 13.72 6.84C13.4267 6.81333 12.9733 6.76 12.36 6.68C11.5067 6.54667 10.7067 6.44 9.96 6.36C9.18667 6.28 8.46667 6.24 7.8 6.24C5.26667 6.24 3.4 6.68 2.2 7.56C0.999999 8.44 0.399999 9.56 0.399999 10.92C0.399999 12.5467 1.18667 14.3333 2.76 16.28C4.06667 17.88 5.70666 19.4267 7.68 20.92C9.62667 22.4133 11.8267 23.6933 14.28 24.76C16.7067 25.8 19.2933 26.4933 22.04 26.84C22.1467 27.6133 22.2267 28.36 22.28 29.08C22.3333 29.8 22.36 30.48 22.36 31.12C22.36 33.44 22.0933 35.3467 21.56 36.84C21 38.36 20.32 39.5467 19.52 40.4C18.6933 41.2533 17.88 41.8533 17.08 42.2C16.2533 42.5467 15.5867 42.72 15.08 42.72C14.68 42.72 14.4133 42.6533 14.28 42.52C14.1733 42.3867 14.0533 42.32 13.92 42.32C13.6267 42.32 13.48 42.52 13.48 42.92C13.48 43.24 13.6267 43.4533 13.92 43.56C14.48 43.8 15.0667 43.92 15.68 43.92ZM21.92 26.12C19.12 25.56 16.5867 24.7067 14.32 23.56C12.0267 22.4133 10 21.0933 8.24 19.6C6.48 18.1067 5 16.5467 3.8 14.92C3.10667 14.0133 2.61333 13.2 2.32 12.48C2.02667 11.7333 1.88 11.08 1.88 10.52C1.88 9.61333 2.2 8.89333 2.84 8.36C3.45333 7.8 4.26666 7.4 5.28 7.16C6.29333 6.92 7.38667 6.8 8.56 6.8C9.78667 6.8 11 6.90667 12.2 7.12C13.4 7.33333 14.4667 7.61333 15.4 7.96C15.5867 8.04 15.7467 8.05333 15.88 8C16.6533 9.70667 17.36 11.3467 18 12.92C18.6133 14.4667 19.16 15.9467 19.64 17.36C18.4933 16.9867 17.2933 16.6667 16.04 16.4C14.7867 16.1333 13.4933 15.9733 12.16 15.92H12C11.7333 15.92 11.6 15.9733 11.6 16.08C11.6 16.16 11.7333 16.2533 12 16.36C12.24 16.4667 12.6533 16.5333 13.24 16.56C14.4667 16.6133 15.6267 16.7733 16.72 17.04C17.8133 17.28 18.8533 17.5867 19.84 17.96C20.3467 19.5067 20.7733 20.96 21.12 22.32C21.44 23.68 21.7067 24.9467 21.92 26.12ZM24.68 26.44C24.4667 26.44 24.2533 26.44 24.04 26.44C23.8 26.4133 23.56 26.3867 23.32 26.36C23.2133 25.2133 23.0533 24.0267 22.84 22.8C22.6267 21.5467 22.3467 20.2533 22 18.92C23.7067 19.8 25.0667 20.7867 26.08 21.88C27.0933 22.9467 27.6 23.8933 27.6 24.72C27.6 25.2267 27.36 25.64 26.88 25.96C26.4 26.28 25.6667 26.44 24.68 26.44Z" fill="white"/>
</svg>
