<svg width="71" height="48" viewBox="0 0 71 48" fill="none" xmlns="http://www.w3.org/2000/svg">
<path d="M0 3.23588C0 2.53188 0.224 1.95588 0.672 1.50787C1.184 1.05988 1.76 0.835875 2.4 0.835875L47.52 0.835875C48.224 0.835875 48.8 1.05988 49.248 1.50787C49.696 1.95588 49.92 2.53188 49.92 3.23588V14.5639C49.92 15.2679 49.696 15.8439 49.248 16.2919C48.8 16.7399 48.224 16.9639 47.52 16.9639L2.4 16.9639C1.76 16.9639 1.184 16.7399 0.672 16.2919C0.224 15.8439 0 15.2679 0 14.5639L0 3.23588ZM57.12 3.13988C57.12 2.43588 57.344 1.85988 57.792 1.41188C58.24 0.963875 58.816 0.739875 59.52 0.739875L68.16 0.739875C68.8 0.739875 69.344 0.963875 69.792 1.41188C70.304 1.85988 70.56 2.43588 70.56 3.13988V14.6599C70.56 15.2999 70.304 15.8439 69.792 16.2919C69.344 16.8039 68.8 17.0599 68.16 17.0599L59.52 17.0599C58.816 17.0599 58.24 16.8039 57.792 16.2919C57.344 15.8439 57.12 15.2999 57.12 14.6599V3.13988ZM21.216 33.3386C21.216 32.6346 21.44 32.0586 21.888 31.6106C22.4 31.1626 22.976 30.9386 23.616 30.9386L64.8 30.9386C65.504 30.9386 66.08 31.1626 66.528 31.6106C66.976 32.0586 67.2 32.6346 67.2 33.3386L67.2 44.3786C67.2 45.0826 66.976 45.6586 66.528 46.1066C66.08 46.5546 65.504 46.7786 64.8 46.7786L23.616 46.7786C22.976 46.7786 22.4 46.5546 21.888 46.1066C21.44 45.6586 21.216 45.0826 21.216 44.3786L21.216 33.3386ZM0 32.9546C0 32.2506 0.224 31.6746 0.672 31.2266C1.184 30.7786 1.76 30.5546 2.4 30.5546H14.208C14.912 30.5546 15.488 30.7786 15.936 31.2266C16.448 31.6746 16.704 32.2506 16.704 32.9546L16.704 44.7626C16.704 45.4026 16.448 45.9466 15.936 46.3946C15.488 46.9066 14.912 47.1626 14.208 47.1626H2.4C1.76 47.1626 1.184 46.9066 0.672 46.3946C0.224 45.9466 0 45.4026 0 44.7626L0 32.9546Z" fill="white"/>
</svg>
