<svg width="15" height="21" viewBox="0 0 15 21" fill="none" xmlns="http://www.w3.org/2000/svg">
<path d="M7.29167 9.89583C6.601 9.89583 5.93862 9.62147 5.45024 9.13309C4.96187 8.64472 4.6875 7.98234 4.6875 7.29167C4.6875 6.601 4.96187 5.93862 5.45024 5.45024C5.93862 4.96187 6.601 4.6875 7.29167 4.6875C7.98234 4.6875 8.64472 4.96187 9.13309 5.45024C9.62147 5.93862 9.89583 6.601 9.89583 7.29167C9.89583 7.63365 9.82848 7.97229 9.6976 8.28824C9.56673 8.60419 9.37491 8.89127 9.13309 9.13309C8.89127 9.37491 8.60419 9.56673 8.28824 9.6976C7.97229 9.82848 7.63365 9.89583 7.29167 9.89583ZM7.29167 0C5.3578 0 3.50313 0.768227 2.13568 2.13568C0.768227 3.50313 0 5.3578 0 7.29167C0 12.7604 7.29167 20.8333 7.29167 20.8333C7.29167 20.8333 14.5833 12.7604 14.5833 7.29167C14.5833 5.3578 13.8151 3.50313 12.4477 2.13568C11.0802 0.768227 9.22554 0 7.29167 0Z" fill="#B0B0B0"/>
</svg>
