<svg width="551" height="761" viewBox="0 0 551 761" fill="none" xmlns="http://www.w3.org/2000/svg">
<rect width="551" height="761" fill="#FFF3E8"/>
<path d="M149.769 346.8V384.624L103.401 343.44V414H118.953V376.176L165.417 417.36V346.8H149.769ZM175.588 391.92C175.588 396.528 176.676 400.56 178.852 404.016C181.028 407.472 184.036 410.16 187.876 412.08C191.716 414 196.036 414.96 200.836 414.96C205.636 414.96 209.924 414 213.7 412.08C217.54 410.16 220.548 407.472 222.724 404.016C224.964 400.56 226.084 396.528 226.084 391.92C226.084 387.248 224.964 383.184 222.724 379.728C220.548 376.272 217.54 373.584 213.7 371.664C209.924 369.744 205.636 368.784 200.836 368.784C196.036 368.784 191.716 369.744 187.876 371.664C184.036 373.584 181.028 376.272 178.852 379.728C176.676 383.184 175.588 387.248 175.588 391.92ZM190.468 391.92C190.468 389.616 190.948 387.632 191.908 385.968C192.868 384.304 194.116 383.024 195.652 382.128C197.188 381.232 198.916 380.784 200.836 380.784C202.692 380.784 204.388 381.232 205.924 382.128C207.524 383.024 208.772 384.304 209.668 385.968C210.628 387.632 211.108 389.616 211.108 391.92C211.108 394.224 210.628 396.208 209.668 397.872C208.772 399.472 207.524 400.72 205.924 401.616C204.388 402.512 202.692 402.96 200.836 402.96C198.916 402.96 197.188 402.512 195.652 401.616C194.116 400.72 192.868 399.472 191.908 397.872C190.948 396.208 190.468 394.224 190.468 391.92ZM229.621 369.84V381.84H259.189V369.84H229.621ZM237.397 354.48V414H251.317V354.48H237.397ZM279.959 339.12H265.367V414H279.959V339.12ZM294.071 387.12V414H308.567V385.008C308.567 381.36 308.055 378.288 307.031 375.792C306.007 373.296 304.375 371.408 302.135 370.128C299.959 368.848 297.047 368.208 293.399 368.208C289.751 368.208 286.743 369.072 284.375 370.8C282.071 372.464 280.343 374.736 279.191 377.616C278.039 380.432 277.463 383.6 277.463 387.12H279.959C279.959 385.392 280.279 383.952 280.919 382.8C281.559 381.584 282.455 380.656 283.607 380.016C284.759 379.312 286.103 378.96 287.639 378.96C290.007 378.96 291.671 379.664 292.631 381.072C293.591 382.48 294.071 384.496 294.071 387.12ZM319.159 353.232C319.159 355.536 319.991 357.424 321.655 358.896C323.319 360.368 325.303 361.104 327.607 361.104C329.975 361.104 331.959 360.368 333.559 358.896C335.223 357.424 336.055 355.536 336.055 353.232C336.055 350.928 335.223 349.072 333.559 347.664C331.959 346.192 329.975 345.456 327.607 345.456C325.303 345.456 323.319 346.192 321.655 347.664C319.991 349.072 319.159 350.928 319.159 353.232ZM320.599 369.84V414H334.615V369.84H320.599ZM375.259 387.12V414H390.331V385.584C390.331 380.272 389.083 376.144 386.587 373.2C384.091 370.256 380.091 368.784 374.587 368.784C371.323 368.784 368.571 369.456 366.331 370.8C364.155 372.144 362.427 374.032 361.147 376.464V369.84H346.555V414H361.147V387.12C361.147 385.392 361.467 383.92 362.107 382.704C362.747 381.488 363.643 380.56 364.795 379.92C365.947 379.28 367.291 378.96 368.827 378.96C371.131 378.96 372.763 379.664 373.723 381.072C374.747 382.48 375.259 384.496 375.259 387.12ZM400.141 417.168C400.461 421.072 401.517 424.496 403.309 427.44C405.101 430.448 407.757 432.784 411.277 434.448C414.861 436.112 419.373 436.944 424.813 436.944C429.357 436.944 433.453 436.112 437.101 434.448C440.749 432.848 443.661 430.288 445.837 426.768C448.077 423.248 449.197 418.672 449.197 413.04V369.84H435.277V413.04C435.277 415.728 434.765 417.968 433.741 419.76C432.781 421.616 431.469 422.992 429.805 423.888C428.141 424.848 426.285 425.328 424.237 425.328C422.381 425.328 420.717 425.008 419.245 424.368C417.773 423.792 416.589 422.896 415.693 421.68C414.861 420.464 414.349 418.96 414.157 417.168H400.141ZM399.181 391.344C399.181 396.272 400.173 400.4 402.157 403.728C404.205 407.056 406.829 409.584 410.029 411.312C413.229 412.976 416.621 413.808 420.205 413.808C423.917 413.808 427.181 412.944 429.997 411.216C432.877 409.424 435.149 406.864 436.813 403.536C438.477 400.144 439.309 396.08 439.309 391.344C439.309 386.544 438.477 382.48 436.813 379.152C435.149 375.824 432.877 373.296 429.997 371.568C427.181 369.776 423.917 368.88 420.205 368.88C416.621 368.88 413.229 369.712 410.029 371.376C406.829 373.04 404.205 375.536 402.157 378.864C400.173 382.192 399.181 386.352 399.181 391.344ZM414.445 391.344C414.445 389.04 414.925 387.088 415.885 385.488C416.845 383.888 418.125 382.672 419.725 381.84C421.325 381.008 423.085 380.592 425.005 380.592C426.221 380.592 427.437 380.816 428.653 381.264C429.869 381.712 430.957 382.384 431.917 383.28C432.941 384.176 433.741 385.296 434.317 386.64C434.957 387.984 435.277 389.552 435.277 391.344C435.277 393.712 434.765 395.696 433.741 397.296C432.717 398.896 431.405 400.112 429.805 400.944C428.269 401.712 426.669 402.096 425.005 402.096C423.085 402.096 421.325 401.68 419.725 400.848C418.125 400.016 416.845 398.8 415.885 397.2C414.925 395.536 414.445 393.584 414.445 391.344Z" fill="#FF3F00"/>
</svg>
